<svg width="20" height="20" viewBox="0 0 20 20" fill="none" xmlns="http://www.w3.org/2000/svg">
<g clip-path="url(#clip0_148_19681)">
<path d="M7.88411 -0.0301309C7.748 -0.0321309 7.59782 -0.0134065 7.41374 0.0463699C7.04561 0.165496 6.8814 0.344623 6.69596 0.520002C6.51054 0.695181 6.34024 0.884527 6.17513 1.07339C5.84491 1.45126 5.44612 1.86433 5.49317 1.83022C5.54025 1.79639 5.02853 2.04533 4.56706 2.24201C4.33633 2.34018 4.09623 2.44765 3.87207 2.56915C3.64789 2.69106 3.43252 2.78831 3.20476 3.10138C2.97699 3.41433 2.94743 3.65293 2.90039 3.90379C2.85339 4.15465 2.83022 4.41074 2.80761 4.66063C2.76236 5.1604 2.6773 5.72012 2.69531 5.66486C2.71333 5.60956 2.44372 6.11499 2.18587 6.54539C2.05695 6.76067 1.9262 6.99047 1.81641 7.22085C1.70661 7.45123 1.59707 7.65564 1.59668 8.04279C1.5963 8.42994 1.70871 8.63573 1.81803 8.86636C1.92736 9.09706 2.05901 9.3182 2.1875 9.53367C2.44448 9.96458 2.71159 10.4712 2.69369 10.4158C2.67577 10.3606 2.75519 10.93 2.79948 11.4298C2.82166 11.6796 2.84573 11.9357 2.89226 12.1867C2.93876 12.4378 2.96459 12.6773 3.19173 12.9907C3.41886 13.3042 3.63676 13.4022 3.86068 13.5246C4.08461 13.6467 4.3235 13.7482 4.55404 13.8468C5.01511 14.0444 5.53038 14.301 5.4834 14.2667C5.4364 14.233 5.8294 14.6371 6.15886 15.0154C6.32358 15.2047 6.49298 15.3981 6.67806 15.5737C6.86313 15.7495 7.02793 15.9258 7.39583 16.0457C7.76372 16.1659 7.99571 16.1205 8.2487 16.088C8.5017 16.0552 8.7545 16.0056 8.99902 15.9497C9.48807 15.8383 10.0516 15.7349 9.99349 15.7348C9.93541 15.7348 10.4959 15.834 10.9847 15.9464C11.2291 16.0026 11.4788 16.0598 11.7318 16.0929C11.9847 16.1272 12.2181 16.1697 12.5863 16.0506C12.9544 15.9315 13.1186 15.7587 13.304 15.5835C13.4895 15.4083 13.6679 15.2122 13.833 15.0236C14.1632 14.6457 14.5539 14.2407 14.5068 14.2749C14.4598 14.3087 14.978 14.0598 15.4395 13.8631C15.6702 13.7649 15.9038 13.6558 16.1279 13.5343C16.3521 13.4124 16.5675 13.3168 16.7952 13.0037C17.023 12.6908 17.0526 12.4522 17.0996 12.2013C17.1466 11.9505 17.1698 11.6944 17.1924 11.4445C17.2376 10.9447 17.3227 10.3768 17.3047 10.4321C17.2867 10.4874 17.5563 9.98202 17.8141 9.55158C17.9431 9.3363 18.0738 9.11464 18.1836 8.88426C18.2934 8.65388 18.4029 8.44951 18.4033 8.06232C18.4037 7.67517 18.2913 7.46937 18.182 7.23875C18.0726 7.00805 17.9426 6.77877 17.8141 6.56329C17.5571 6.13235 17.2884 5.63233 17.3063 5.68764C17.3242 5.74284 17.2448 5.1735 17.2005 4.67365C17.1784 4.4235 17.1543 4.16777 17.1077 3.91681C17.0612 3.66565 17.0354 3.42622 16.8083 3.11277C16.5811 2.79929 16.3632 2.70294 16.1393 2.58055C15.9154 2.45839 15.6765 2.34912 15.446 2.25014C14.9849 2.05259 14.4696 1.80434 14.5166 1.83836C14.5636 1.8721 14.1722 1.45839 13.8428 1.0799C13.678 0.89063 13.507 0.698935 13.3219 0.523256C13.1369 0.347457 12.9721 0.171131 12.6042 0.0512508C12.2363 -0.0689076 12.0043 -0.0174159 11.7513 0.0154423C11.4983 0.0483006 11.2455 0.0995466 11.001 0.155417C10.5119 0.266759 9.94841 0.369844 10.0065 0.37026C10.0646 0.370319 9.50411 0.262974 9.0153 0.150534C8.77089 0.0943173 8.52116 0.0436798 8.26823 0.0105598C8.14179 -0.0065986 8.02023 -0.0281233 7.88411 -0.0301309ZM10.0293 4.35301C10.1579 4.35404 10.2845 4.385 10.3992 4.44346C10.5138 4.50192 10.6134 4.58628 10.6901 4.68992L11.6553 5.99689L13.2829 6.61212C13.4023 6.65739 13.5098 6.72967 13.597 6.82337C13.6841 6.91706 13.7486 7.02966 13.7854 7.15242C13.8223 7.27518 13.8305 7.40482 13.8093 7.53128C13.7882 7.65774 13.7384 7.77763 13.6637 7.88165L12.723 9.20978L12.6432 10.9546C12.6372 11.082 12.6023 11.2063 12.541 11.3181C12.4797 11.4298 12.3938 11.526 12.2898 11.5992C12.1858 11.6724 12.0664 11.7208 11.9409 11.7405C11.8154 11.7602 11.6871 11.7508 11.5658 11.713L10.013 11.2231L8.33659 11.6821C8.21311 11.7172 8.08323 11.7231 7.95711 11.6994C7.83099 11.6757 7.71205 11.623 7.60959 11.5454C7.50714 11.4679 7.42395 11.3676 7.36654 11.2524C7.30913 11.1372 7.27905 11.0102 7.27865 10.8813L7.26565 9.24884L6.31513 7.79051C6.24492 7.68395 6.20001 7.56264 6.18384 7.43591C6.16768 7.30917 6.18069 7.1804 6.22188 7.0595C6.26307 6.93859 6.33135 6.82878 6.42144 6.73853C6.51154 6.64827 6.62106 6.57997 6.74156 6.53888L8.29104 6.02618L9.37991 4.66388C9.45149 4.57462 9.54059 4.50111 9.64167 4.44791C9.74275 4.39471 9.85365 4.36296 9.96747 4.35463C9.98806 4.35331 10.0087 4.35279 10.0293 4.35301Z" fill="white"/>
<path d="M4.16992 14.7842V17.4469C4.16992 18.1616 4.44015 18.8182 4.90071 19.3366C5.13096 19.5958 5.41734 19.8272 5.79265 19.9518C6.16795 20.0765 6.64645 20.0572 7.04265 19.859L10.0016 18.3828L12.9606 19.859C13.077 19.9166 13.2052 19.9461 13.335 19.9453C14.7055 19.9453 15.8333 18.8175 15.8333 17.4469V14.7956C15.4984 14.9466 15.0775 15.1391 15.1139 15.113C15.1673 15.0742 14.7237 15.5338 14.349 15.9626C14.1617 16.1766 13.9588 16.3986 13.7484 16.5973C13.538 16.7961 13.3522 16.9928 12.9346 17.1279C12.5169 17.263 12.2514 17.2142 11.9645 17.1751C11.6775 17.1373 11.3956 17.0731 11.1182 17.0091C10.5635 16.8816 9.92766 16.7698 9.99349 16.7699C10.0594 16.7699 9.4188 16.8861 8.86393 17.0124C8.58648 17.0757 8.29962 17.1331 8.0127 17.1702C7.72567 17.2071 7.46328 17.2578 7.0459 17.1214C6.62845 16.9854 6.44055 16.7853 6.23047 16.5859C6.02046 16.3867 5.82805 16.1676 5.64128 15.9528C5.26748 15.5235 4.82307 15.0648 4.8763 15.1032C4.91206 15.1292 4.49659 14.935 4.16992 14.7842Z" fill="white"/>
</g>
<defs>
<clipPath id="clip0_148_19681">
<rect width="20" height="20" fill="white"/>
</clipPath>
</defs>
</svg>
