<svg width="20" height="20" viewBox="0 0 20 20" fill="none" xmlns="http://www.w3.org/2000/svg">
<path d="M5.41663 10H2.08329C1.97279 10 1.86681 10.0439 1.78866 10.122C1.71052 10.2002 1.66663 10.3062 1.66663 10.4167V16.6667H5.83329V10.4167C5.83329 10.3062 5.78939 10.2002 5.71125 10.122C5.63311 10.0439 5.52713 10 5.41663 10Z" fill="white"/>
<path d="M11.6666 3.3335H8.33329C8.22279 3.3335 8.1168 3.37739 8.03866 3.45554C7.96052 3.53368 7.91663 3.63966 7.91663 3.75016V16.6668H12.0833V3.75016C12.0833 3.63966 12.0394 3.53368 11.9613 3.45554C11.8831 3.37739 11.7771 3.3335 11.6666 3.3335Z" fill="white"/>
<path d="M17.9166 6.6665H14.5833C14.4728 6.6665 14.3668 6.7104 14.2887 6.78854C14.2105 6.86668 14.1666 6.97266 14.1666 7.08317V16.6665H18.3333V7.08317C18.3333 6.97266 18.2894 6.86668 18.2113 6.78854C18.1331 6.7104 18.0271 6.6665 17.9166 6.6665Z" fill="white"/>
</svg>
